<?xml version="1.0" encoding="utf-8"?>
<?xml-stylesheet type="text/xsl" href="rss1.xsl"?>
<rss version="2.0" xmlns:atom="http://www.w3.org/2005/Atom" xmlns:content="http://purl.org/rss/1.0/modules/content/" xmlns:dc="http://purl.org/dc/elements/1.1/" xmlns:media="http://search.yahoo.com/mrss/">
<channel>
 <title>Getty</title>
 <link>http://www.gettyimg.com/</link>
 <atom:link href="http://www.gettyimg.com/" rel="self" type="application/rss+xml" />

 
                <item>
                <title><![CDATA[【HD Live Performances】HDTV - Dick Clark's New Year's Rockin' Eve With Ryan Seacrest 2024 [FULL SHOW] HDTV MPEG2 720p DD5.1-ilya2129]]></title>
                <link><![CDATA[https://sharemania.us/threads/dick-clarks-new-years-rockin-eve-with-ryan-seacrest-2024-full-show-hdtv-mpeg2-720p-dd5-1-ilya2129.235054/]]></link>
                <description><![CDATA[<article>
<blockquote class="messageText SelectQuoteContainer ugc baseHtml">
<div style="text-align: center"><img src="https://i121.fastpic.org/big/2023/0101/f3/3a4da6c60a8aee8c6191e0dbe6bd18f3.png" class="bbCodeImage LbImage" alt="[​IMG]" data-url="https://i121.fastpic.org/big/2023/0101/f3/3a4da6c60a8aee8c6191e0dbe6bd18f3.png" style=""><br>
<br>
<a href="https://postimg.cc/18q5V6wJ" target="_blank" class="externalLink" rel="nofollow"><img src="https://i.postimg.cc/18q5V6wJ/vlcsnap-2024-01-01-16h14m23s681.png" class="bbCodeImage LbImage" alt="[​IMG]" data-url="https://i.postimg.cc/18q5V6wJ/vlcsnap-2024-01-01-16h14m23s681.png"></a> <a href="https://postimg.cc/Q90XZqZx" target="_blank" class="externalLink" rel="nofollow"><img src="https://i.postimg.cc/Q90XZqZx/vlcsnap-2024-01-01-16h14m27s515.png" class="bbCodeImage LbImage" alt="[​IMG]" data-url="https://i.postimg.cc/Q90XZqZx/vlcsnap-2024-01-01-16h14m27s515.png"></a> <a href="https://postimg.cc/zHvqzRqw" target="_blank" class="externalLink" rel="nofollow"><img src="https://i.postimg.cc/zHvqzRqw/vlcsnap-2024-01-01-16h14m30s648.png" class="bbCodeImage LbImage" alt="[​IMG]" data-url="https://i.postimg.cc/zHvqzRqw/vlcsnap-2024-01-01-16h14m30s648.png"></a> <a href="https://postimg.cc/HcppNhKh" target="_blank" class="externalLink" rel="nofollow"><img src="https://i.postimg.cc/HcppNhKh/vlcsnap-2024-01-01-16h14m37s350.png" class="bbCodeImage LbImage" alt="[​IMG]" data-url="https://i.postimg.cc/HcppNhKh/vlcsnap-2024-01-01-16h14m37s350.png"></a> <a href="https://postimg.cc/jW6xZb8f" target="_blank" class="externalLink" rel="nofollow"><img src="https://i.postimg.cc/jW6xZb8f/vlcsnap-2024-01-01-16h14m40s462.png" class="bbCodeImage LbImage" alt="[​IMG]" data-url="https://i.postimg.cc/jW6xZb8f/vlcsnap-2024-01-01-16h14m40s462.png"></a> <a href="https://postimg.cc/Tyv2VwcG" target="_blank" class="externalLink" rel="nofollow"><img src="https://i.postimg.cc/Tyv2VwcG/vlcsnap-2024-01-01-16h14m44s514.png" class="bbCodeImage LbImage" alt="[​IMG]" data-url="https://i.postimg.cc/Tyv2VwcG/vlcsnap-2024-01-01-16h14m44s514.png"></a> <br>
<br>
Headliners: LL Cool J, Jelly Roll, Jessie Murph, Megan Thee Stallion, Sabrina Carpenter, Tyla<br>
Hollywood acts: Aqua, Chic with Nile Rodgers, Doechii, Ellie Goulding, Green Day, Janelle Monáe, Loud Luxury with Two Friends and Bebe Rexha, Ludacris, Paul Russell, Reneé Rapp with Coco Jones, and Thirty Seconds to Mars<br>
Las Vegas acts: Post Malone<br>
Miami acts: Cardi B<br>
Puerto Rico acts: Ivy Queen<br>
South Korean acts: NewJeans<br>
​</div><br>
<div class="bbCodeBlock bbCodeCode">
<div class="type">Code:</div>
<pre>General
Unique ID                                : 78531381836750335804855734905555065469 (0x3B14980F6C86DAB79767E9D772F31A7D)
Complete name                            : F:\Dick Clark's New Year's Rockin' Eve With Ryan Seacrest 2024 HDTV MPEG2 720p DD5.1-ilya2129.mkv
Format                                   : Matroska
Format version                           : Version 4
File size                                : 17.6 GiB
Duration                                 : 3 h 53 min
Overall bit rate mode                    : Variable
Overall bit rate                         : 10.8 Mb/s
Frame rate                               : 59.940 FPS
Encoded date                             : 2024-01-01 13:13:33 UTC
Writing application                      : mkvmerge v72.0.0 ('Minuano (Six-eight)') 64-bit
Writing library                          : libebml v1.4.4 + libmatroska v1.7.1

Video
ID                                       : 1
Format                                   : MPEG Video
Commercial name                          : HDV 720p
Format version                           : Version 2
Format profile                           : Main@High
Format settings                          : CustomMatrix / BVOP
Format settings, BVOP                    : Yes
Format settings, Matrix                  : Custom
Format settings, GOP                     : Variable
Codec ID                                 : V_MPEG2
Codec ID/Info                            : MPEG 1 or 2 Video
Duration                                 : 3 h 53 min
Bit rate mode                            : Variable
Bit rate                                 : 10.4 Mb/s
Maximum bit rate                         : 14.4 Mb/s
Width                                    : 1 280 pixels
Height                                   : 720 pixels
Display aspect ratio                     : 16:9
Active Format Description                : Letterbox 16:9 image
Frame rate mode                          : Constant
Frame rate                               : 59.940 (60000/1001) FPS
Color space                              : YUV
Chroma subsampling                       : 4:2:0
Bit depth                                : 8 bits
Scan type                                : Progressive
Compression mode                         : Lossy
Bits/(Pixel*Frame)                       : 0.188
Time code of first frame                 : 07:40:06;59
Time code source                         : Group of pictures header
GOP, Open/Closed                         : Open
GOP, Open/Closed of first frame          : Closed
Stream size                              : 17.0 GiB (96%)
Default                                  : Yes
Forced                                   : No

Audio
ID                                       : 2
Format                                   : AC-3
Format/Info                              : Audio Coding 3
Commercial name                          : Dolby Digital
Codec ID                                 : A_AC3
Duration                                 : 3 h 53 min
Bit rate mode                            : Constant
Bit rate                                 : 384 kb/s
Channel(s)                               : 6 channels
Channel layout                           : L R C LFE Ls Rs
Sampling rate                            : 48.0 kHz
Frame rate                               : 31.250 FPS (1536 SPF)
Compression mode                         : Lossy
Delay relative to video                  : 15 ms
Stream size                              : 642 MiB (4%)
Language                                 : English
Service kind                             : Complete Main
Default                                  : Yes
Forced                                   : No

</pre>
</div><div style="text-align: center">
<div class="bbCodeBlock bbCodeVfcHH HiddenContent">
<div class="attribution type">Hidden Content:</div>
<blockquote>You must reply before you can see the hidden data contained here.</blockquote>
</div></div>
<div class="messageTextEndMarker">&nbsp;</div>
</blockquote>
</article>]]></description>
                <author><![CDATA[ilya2129]]></author>
                </item>

                </channel></rss>